<svg xmlns="http://www.w3.org/2000/svg" viewBox="0 0 100 100">
  <g>
    <path d="M83.698 35.687s.553-4.243 4.796-6.825c-1.614-1.245-1.983-1.292-1.983-1.292s-1.89 1.568-2.26 2.398c-.04-.737.37-2.352 1.25-3.182.56-.507-2.86-1.015-3.46-.738-.6.276-1.38 2.075-1.43 2.352-.04.276-1.01.322-.74-.046s1.02-1.614 1.39-1.983c0 0-1.84-.13-2.03-.04s-1.8 2.77-1.98 3.65c-2.67-.46-5.67-2.76-7.01-2.81-1.33-.04-.78.79-3.09.56.37-1.842.56-3.594.23-5.024 0 0-7.28-12.96-28.54-12.45-1.8 0-1.47 3.92 1.11 5.21 0 0-2.03 3.874-2.24 4.06-.2.183-2.14-.28-3.06-1.984C33.73 15.83 21 6.24 18.93 5.73s-7.01 3.69-7.38 4.846 4.47 4.425 6.64 4.61c1.17.1.783-.785 1.43-.37 2.627 1.245 9.545 8.255 10.283 22.32.173 3.66 1.15 7.164-1.676 13.743-1.6 4.053-3.14 16.54-2.154 20.962s1.966 12.115 13.59 16.85c-.68 3.505-.987 5.658-.987 5.658L46.78 82.1s.06-1.107-1.17-1.414c-1.23-.31-4.49-7.994-3.875-8.733 2.667-3.416 8.854-9.225 11.314-10.454 2.23 3 5.33 9.08 5.28 10.45-.05 1.37 5.02 3.44 7.15 2.2.37-.23 5.58-5.44 4.65-12.27-1.71.32-2.91.97-3.32 1.29.55-2.08.73-13.19-.6-14.76-1.34-1.57-5.12-.51-5.68-.23.46-.65 1.29-4.11.734-4.75-.55-.65 6.64-6.37 8.35-6.64 1.706-.28 8.716 1.24 9.914 2.17 1.48-.14 5.03-.33 6.874.23 0 0 .69-2.77.414-3.51 0-.42-3.138 0-3.138 0zM48.28 39.514c-1.613-.092-2.766-3.044-2.904-3.367.6.277 4.42 1.552 5.303 1.707.59.37-.79 1.752-2.4 1.66zm10.838.323c-1.245.323-3.2-1.045-2.398-1.2 1.006-.193 3.413-.83 4.243-1.152s-.6 2.03-1.845 2.352z"/>
  </g>
</svg>
